<?xml version="1.0" encoding="UTF-8"?>
<!DOCTYPE svg PUBLIC "-//W3C//DTD SVG 1.1//EN" "http://www.w3.org/Graphics/SVG/1.1/DTD/svg11.dtd">
<svg xmlns="http://www.w3.org/2000/svg" version="1.1" width="57px" height="57px" style="shape-rendering:geometricPrecision; text-rendering:geometricPrecision; image-rendering:optimizeQuality; fill-rule:evenodd; clip-rule:evenodd" xmlns:xlink="http://www.w3.org/1999/xlink">
<g><path style="opacity:1" fill="#4aa8c4" d="M 25.5,3.5 C 24.6906,4.46872 23.6906,5.30206 22.5,6C 23.448,6.48278 24.448,6.64945 25.5,6.5C 27.4147,6.21552 29.0813,6.54885 30.5,7.5C 27.6146,7.1936 24.9479,7.52693 22.5,8.5C 21.8333,8.5 21.1667,8.5 20.5,8.5C 21.5981,7.60305 21.5981,6.76971 20.5,6C 21.5,5 22.5,4 23.5,3C 22.2312,3.10852 21.2312,2.94185 20.5,2.5C 20.5,2.16667 20.5,1.83333 20.5,1.5C 22.7428,0.141611 24.4095,0.808278 25.5,3.5 Z"/></g>
<g><path style="opacity:1" fill="#3fa1c4" d="M 35.5,2.5 C 34.1529,3.17119 32.9862,3.17119 32,2.5C 31.5172,3.44802 31.3505,4.44802 31.5,5.5C 30.8333,5.5 30.1667,5.5 29.5,5.5C 28.1667,4.83333 26.8333,4.16667 25.5,3.5C 28.1391,3.42925 30.3058,2.42925 32,0.5C 33.4595,0.808222 34.6261,1.47489 35.5,2.5 Z"/></g>
<g><path style="opacity:1" fill="#0d93be" d="M 35.5,2.5 C 35.8799,4.69798 35.2132,6.36465 33.5,7.5C 33.1667,6.5 32.5,5.83333 31.5,5.5C 31.3505,4.44802 31.5172,3.44802 32,2.5C 32.9862,3.17119 34.1529,3.17119 35.5,2.5 Z"/></g>
<g><path style="opacity:1" fill="#0389b7" d="M 20.5,2.5 C 21.2312,2.94185 22.2312,3.10852 23.5,3C 22.5,4 21.5,5 20.5,6C 21.5981,6.76971 21.5981,7.60305 20.5,8.5C 19.5,8.83333 18.8333,9.5 18.5,10.5C 16.5188,9.89459 16.1854,8.89459 17.5,7.5C 18.9348,6.08668 19.9348,4.42001 20.5,2.5 Z"/></g>
<g><path style="opacity:0.867" fill="#71bacf" d="M 20.5,1.5 C 20.5,1.83333 20.5,2.16667 20.5,2.5C 19.9348,4.42001 18.9348,6.08668 17.5,7.5C 18.3629,6.05974 18.3629,4.72641 17.5,3.5C 18.0047,2.08149 19.0047,1.41483 20.5,1.5 Z"/></g>
<g><path style="opacity:0.996" fill="#0488b6" d="M 25.5,3.5 C 26.8333,4.16667 28.1667,4.83333 29.5,5.5C 27.901,5.23219 26.5676,5.56552 25.5,6.5C 24.448,6.64945 23.448,6.48278 22.5,6C 23.6906,5.30206 24.6906,4.46872 25.5,3.5 Z"/></g>
<g><path style="opacity:1" fill="#2d99be" d="M 25.5,6.5 C 26.5676,5.56552 27.901,5.23219 29.5,5.5C 30.1667,5.5 30.8333,5.5 31.5,5.5C 32.5,5.83333 33.1667,6.5 33.5,7.5C 33.5,7.83333 33.5,8.16667 33.5,8.5C 32.8333,8.5 32.1667,8.5 31.5,8.5C 31.5,7.83333 31.1667,7.5 30.5,7.5C 29.0813,6.54885 27.4147,6.21552 25.5,6.5 Z"/></g>
<g><path style="opacity:1" fill="#61a2bc" d="M 35.5,2.5 C 36.2852,4.37358 36.9518,6.37358 37.5,8.5C 36.1667,8.5 35.5,9.16667 35.5,10.5C 34.8333,10.5 34.1667,10.5 33.5,10.5C 33.5,9.83333 33.5,9.16667 33.5,8.5C 33.5,8.16667 33.5,7.83333 33.5,7.5C 35.2132,6.36465 35.8799,4.69798 35.5,2.5 Z"/></g>
<g><path style="opacity:0.884" fill="#60addc" d="M 20.5,8.5 C 21.1667,8.5 21.8333,8.5 22.5,8.5C 23.5,8.83333 24.1667,9.5 24.5,10.5C 23.0937,10.9731 22.427,11.9731 22.5,13.5C 21.7638,11.7706 20.4305,10.7706 18.5,10.5C 18.8333,9.5 19.5,8.83333 20.5,8.5 Z"/></g>
<g><path style="opacity:1" fill="#3393b8" d="M 14.5,9.5 C 12.9153,10.0024 12.4153,11.0024 13,12.5C 14.1455,13.6843 15.3121,13.6843 16.5,12.5C 16.5,14.5 16.5,16.5 16.5,18.5C 15.8333,17.1667 15.1667,15.8333 14.5,14.5C 14.1667,14.5 13.8333,14.5 13.5,14.5C 10.7998,13.4563 10.1332,11.7896 11.5,9.5C 12.6522,8.37505 13.6522,8.37505 14.5,9.5 Z"/></g>
<g><path style="opacity:1" fill="#6bb5cb" d="M 17.5,7.5 C 16.1854,8.89459 16.5188,9.89459 18.5,10.5C 17.6758,13.7644 17.3424,17.0977 17.5,20.5C 16.6618,20.1583 16.3284,19.4916 16.5,18.5C 16.5,16.5 16.5,14.5 16.5,12.5C 16.2178,11.2223 15.5511,10.2223 14.5,9.5C 13.6522,8.37505 12.6522,8.37505 11.5,9.5C 12.9179,7.69206 14.9179,7.02539 17.5,7.5 Z"/></g>
<g><path style="opacity:1" fill="#1a233c" d="M 31.5,8.5 C 32.1667,8.5 32.8333,8.5 33.5,8.5C 33.5,9.16667 33.5,9.83333 33.5,10.5C 33.1667,11.5 32.5,12.1667 31.5,12.5C 31.1667,11.5 30.5,10.8333 29.5,10.5C 29.8333,9.5 30.5,8.83333 31.5,8.5 Z"/></g>
<g><path style="opacity:1" fill="#56a4c2" d="M 40.5,15.5 C 40.5,14.8333 40.5,14.1667 40.5,13.5C 41.4124,12.2618 41.5791,10.9285 41,9.5C 39.6124,10.5536 38.1124,10.7203 36.5,10C 37.056,9.61742 37.3893,9.11742 37.5,8.5C 42.6525,6.65995 44.6525,8.32661 43.5,13.5C 42.4822,14.1925 41.4822,14.8592 40.5,15.5 Z"/></g>
<g><path style="opacity:1" fill="#1391b7" d="M 37.5,8.5 C 37.3893,9.11742 37.056,9.61742 36.5,10C 38.1124,10.7203 39.6124,10.5536 41,9.5C 41.5791,10.9285 41.4124,12.2618 40.5,13.5C 38.7868,14.6354 38.1201,16.302 38.5,18.5C 38.1667,18.5 37.8333,18.5 37.5,18.5C 38.0102,15.6122 37.3435,13.2789 35.5,11.5C 35.5,11.1667 35.5,10.8333 35.5,10.5C 35.5,9.16667 36.1667,8.5 37.5,8.5 Z"/></g>
<g><path style="opacity:1" fill="#0792ba" d="M 14.5,9.5 C 15.5511,10.2223 16.2178,11.2223 16.5,12.5C 15.3121,13.6843 14.1455,13.6843 13,12.5C 12.4153,11.0024 12.9153,10.0024 14.5,9.5 Z"/></g>
<g><path style="opacity:1" fill="#31354b" d="M 29.5,10.5 C 30.5,10.8333 31.1667,11.5 31.5,12.5C 31.573,14.0269 30.9063,15.0269 29.5,15.5C 29.5,14.8333 29.1667,14.5 28.5,14.5C 28.5,13.8333 28.1667,13.5 27.5,13.5C 27.427,11.9731 28.0937,10.9731 29.5,10.5 Z"/></g>
<g><path style="opacity:1" fill="#58aadf" d="M 24.5,10.5 C 25.9063,10.9731 26.573,11.9731 26.5,13.5C 25.0357,12.5946 23.7024,12.5946 22.5,13.5C 22.427,11.9731 23.0937,10.9731 24.5,10.5 Z"/></g>
<g><path style="opacity:0.957" fill="#5bacde" d="M 26.5,13.5 C 26.8333,13.5 27.1667,13.5 27.5,13.5C 27.5,13.8333 27.5,14.1667 27.5,14.5C 26.0937,14.9731 25.427,15.9731 25.5,17.5C 24.8333,17.5 24.1667,17.5 23.5,17.5C 24.4709,16.0379 24.1376,14.7046 22.5,13.5C 23.7024,12.5946 25.0357,12.5946 26.5,13.5 Z"/></g>
<g><path style="opacity:0.024" fill="#93cfdd" d="M 35.5,11.5 C 37.3435,13.2789 38.0102,15.6122 37.5,18.5C 37.6716,19.4916 37.3382,20.1583 36.5,20.5C 36.7359,17.3915 36.4025,14.3915 35.5,11.5 Z"/></g>
<g><path style="opacity:1" fill="#61b0e2" d="M 27.5,14.5 C 27.8333,14.5 28.1667,14.5 28.5,14.5C 29.1667,14.5 29.5,14.8333 29.5,15.5C 29.5,15.8333 29.5,16.1667 29.5,16.5C 28.8333,16.5 28.5,16.8333 28.5,17.5C 27.8333,17.5 27.5,17.8333 27.5,18.5C 26.8333,19.1667 26.1667,19.8333 25.5,20.5C 25.5,19.5 25.5,18.5 25.5,17.5C 25.427,15.9731 26.0937,14.9731 27.5,14.5 Z"/></g>
<g><path style="opacity:1" fill="#0383af" d="M 40.5,13.5 C 40.5,14.1667 40.5,14.8333 40.5,15.5C 39.2089,16.5417 39.2089,17.7083 40.5,19C 39.9558,19.7172 39.2891,20.2172 38.5,20.5C 38.5,19.8333 38.5,19.1667 38.5,18.5C 38.1201,16.302 38.7868,14.6354 40.5,13.5 Z"/></g>
<g><path style="opacity:1" fill="#4997b8" d="M 14.5,14.5 C 15.1667,15.8333 15.8333,17.1667 16.5,18.5C 16.3284,19.4916 16.6618,20.1583 17.5,20.5C 18.1667,20.5 18.5,20.8333 18.5,21.5C 18.5,21.8333 18.5,22.1667 18.5,22.5C 18.1949,24.9193 18.1949,27.586 18.5,30.5C 17.6981,29.0484 17.1981,27.3817 17,25.5C 15.3967,25.1286 13.8967,24.7952 12.5,24.5C 13.2297,22.955 14.563,22.1216 16.5,22C 13.3457,20.2515 12.679,17.7515 14.5,14.5 Z"/></g>
<g><path style="opacity:1" fill="#5cabdd" d="M 23.5,17.5 C 24.1667,17.5 24.8333,17.5 25.5,17.5C 25.5,18.5 25.5,19.5 25.5,20.5C 25.1667,21.5 24.5,22.1667 23.5,22.5C 22.391,22.4431 21.391,22.1098 20.5,21.5C 21.0256,19.7697 22.0256,18.4363 23.5,17.5 Z"/></g>
<g><path style="opacity:1" fill="#55a0bd" d="M 13.5,14.5 C 13.8333,14.5 14.1667,14.5 14.5,14.5C 12.679,17.7515 13.3457,20.2515 16.5,22C 14.563,22.1216 13.2297,22.955 12.5,24.5C 11.1201,24.0377 10.4534,23.0377 10.5,21.5C 11.9771,19.361 12.9771,17.0277 13.5,14.5 Z"/></g>
<g><path style="opacity:1" fill="#30354c" d="M 29.5,16.5 C 31.2624,17.2623 32.2624,18.5956 32.5,20.5C 31.5,20.8333 30.8333,21.5 30.5,22.5C 28.7376,21.7377 27.7376,20.4044 27.5,18.5C 28.1667,18.5 28.5,18.1667 28.5,17.5C 29.1667,17.5 29.5,17.1667 29.5,16.5 Z"/></g>
<g><path style="opacity:1" fill="#539bb9" d="M 37.5,18.5 C 37.8333,18.5 38.1667,18.5 38.5,18.5C 38.5,19.1667 38.5,19.8333 38.5,20.5C 38.1667,21.1667 37.8333,21.8333 37.5,22.5C 38.9303,23.5375 40.597,24.2041 42.5,24.5C 40.5749,24.8901 38.5749,25.2235 36.5,25.5C 36.5,24.1667 35.8333,23.5 34.5,23.5C 34.5,23.1667 34.5,22.8333 34.5,22.5C 35.1667,21.8333 35.8333,21.1667 36.5,20.5C 37.3382,20.1583 37.6716,19.4916 37.5,18.5 Z"/></g>
<g><path style="opacity:1" fill="#1f90b3" d="M 40.5,15.5 C 40.7329,17.0618 41.3995,18.3951 42.5,19.5C 41.596,20.209 41.2627,21.209 41.5,22.5C 40.1667,22.5 38.8333,22.5 37.5,22.5C 37.8333,21.8333 38.1667,21.1667 38.5,20.5C 39.2891,20.2172 39.9558,19.7172 40.5,19C 39.2089,17.7083 39.2089,16.5417 40.5,15.5 Z"/></g>
<g><path style="opacity:1" fill="#121b34" d="M 32.5,20.5 C 33.5,20.8333 34.1667,21.5 34.5,22.5C 34.5,22.8333 34.5,23.1667 34.5,23.5C 33.0413,23.5674 31.7079,23.2341 30.5,22.5C 30.8333,21.5 31.5,20.8333 32.5,20.5 Z"/></g>
<g><path style="opacity:0.769" fill="#65acd6" d="M 18.5,21.5 C 19.1667,21.5 19.8333,21.5 20.5,21.5C 21.391,22.1098 22.391,22.4431 23.5,22.5C 23.5,23.5 23.5,24.5 23.5,25.5C 21.326,25.2503 19.6594,24.2503 18.5,22.5C 18.5,22.1667 18.5,21.8333 18.5,21.5 Z"/></g>
<g><path style="opacity:1" fill="#3f92b6" d="M 42.5,19.5 C 44.8507,20.9161 44.8507,22.5828 42.5,24.5C 40.597,24.2041 38.9303,23.5375 37.5,22.5C 38.8333,22.5 40.1667,22.5 41.5,22.5C 41.2627,21.209 41.596,20.209 42.5,19.5 Z"/></g>
<g><path style="opacity:1" fill="#1482a8" d="M 18.5,22.5 C 19.6594,24.2503 21.326,25.2503 23.5,25.5C 24.9516,26.3019 26.6183,26.8019 28.5,27C 27.5842,27.2784 26.9175,27.7784 26.5,28.5C 24.5588,28.1307 22.7255,27.464 21,26.5C 20.6258,27.4162 20.1258,28.2496 19.5,29C 21.437,29.1216 22.7703,29.955 23.5,31.5C 22.5,31.5 21.5,31.5 20.5,31.5C 19.5084,31.6716 18.8417,31.3382 18.5,30.5C 18.1949,27.586 18.1949,24.9193 18.5,22.5 Z"/></g>
<g><path style="opacity:1" fill="#5095b0" d="M 30.5,22.5 C 31.7079,23.2341 33.0413,23.5674 34.5,23.5C 35.8333,23.5 36.5,24.1667 36.5,25.5C 36.9465,28.0101 36.2798,30.0101 34.5,31.5C 34.7409,28.9664 33.7409,27.2998 31.5,26.5C 31.5,25.8333 31.1667,25.5 30.5,25.5C 30.5,24.5 30.5,23.5 30.5,22.5 Z"/></g>
<g><path style="opacity:1" fill="#4899b7" d="M 26.5,28.5 C 25.8333,29.8333 24.8333,30.8333 23.5,31.5C 22.7703,29.955 21.437,29.1216 19.5,29C 20.1258,28.2496 20.6258,27.4162 21,26.5C 22.7255,27.464 24.5588,28.1307 26.5,28.5 Z"/></g>
<g><path style="opacity:1" fill="#4296b3" d="M 23.5,25.5 C 25.8333,25.5 28.1667,25.5 30.5,25.5C 31.1667,25.5 31.5,25.8333 31.5,26.5C 30.8333,27.5 30.1667,28.5 29.5,29.5C 28.391,29.4431 27.391,29.1098 26.5,28.5C 26.9175,27.7784 27.5842,27.2784 28.5,27C 26.6183,26.8019 24.9516,26.3019 23.5,25.5 Z"/></g>
<g><path style="opacity:1" fill="#2288ab" d="M 31.5,26.5 C 33.7409,27.2998 34.7409,28.9664 34.5,31.5C 34.1667,31.5 33.8333,31.5 33.5,31.5C 32.5,31.5 31.5,31.5 30.5,31.5C 30.1667,30.8333 29.8333,30.1667 29.5,29.5C 30.1667,28.5 30.8333,27.5 31.5,26.5 Z"/></g>
<g><path style="opacity:0.776" fill="#44a9c7" d="M 6.5,33.5 C 10.1667,32.1667 13.8333,32.1667 17.5,33.5C 16.8333,33.5 16.5,33.8333 16.5,34.5C 13.8333,34.5 11.1667,34.5 8.5,34.5C 8.15829,33.6618 7.49162,33.3284 6.5,33.5 Z"/></g>
<g><path style="opacity:0.776" fill="#58b0c9" d="M 20.5,31.5 C 21.5,31.5 22.5,31.5 23.5,31.5C 25.8333,32.8333 28.1667,32.8333 30.5,31.5C 31.5,31.5 32.5,31.5 33.5,31.5C 35.0764,32.1429 36.4097,33.1429 37.5,34.5C 36.6618,34.8417 36.3284,35.5084 36.5,36.5C 32.8274,34.6823 28.8274,34.0157 24.5,34.5C 24.1583,33.6618 23.4916,33.3284 22.5,33.5C 21.8333,32.8333 21.1667,32.1667 20.5,31.5 Z"/></g>
<g><path style="opacity:1" fill="#73abc8" d="M 46.5,36.5 C 46.1583,35.6618 45.4916,35.3284 44.5,35.5C 45.5077,33.6614 47.0077,32.3281 49,31.5C 48.9031,33.4585 48.0698,35.1252 46.5,36.5 Z"/></g>
<g><path style="opacity:0.651" fill="#52aac8" d="M 17.5,33.5 C 19.8333,33.8333 21.1667,35.1667 21.5,37.5C 21.5,38.1667 21.5,38.8333 21.5,39.5C 21.281,40.675 21.6143,41.675 22.5,42.5C 25.7577,41.5827 29.091,41.2493 32.5,41.5C 32.5,41.8333 32.5,42.1667 32.5,42.5C 29.8333,42.5 27.1667,42.5 24.5,42.5C 24.5,44.5 24.5,46.5 24.5,48.5C 23.8333,47.1667 23.1667,45.8333 22.5,44.5C 21.8333,44.1667 21.1667,43.8333 20.5,43.5C 21.0193,39.5475 19.6859,36.5475 16.5,34.5C 16.5,33.8333 16.8333,33.5 17.5,33.5 Z"/></g>
<g><path style="opacity:0.953" fill="#66a9c7" d="M 37.5,34.5 C 38.9063,34.9731 39.573,35.9731 39.5,37.5C 38.8333,37.5 38.5,37.8333 38.5,38.5C 37.5,38.1667 36.8333,37.5 36.5,36.5C 36.3284,35.5084 36.6618,34.8417 37.5,34.5 Z"/></g>
<g><path style="opacity:0.892" fill="#299ec3" d="M 6.5,33.5 C 7.49162,33.3284 8.15829,33.6618 8.5,34.5C 8.5,39.1667 8.5,43.8333 8.5,48.5C 7.83333,47.5 7.16667,46.5 6.5,45.5C 6.5,41.5 6.5,37.5 6.5,33.5 Z"/></g>
<g><path style="opacity:0.733" fill="#33a1bf" d="M 22.5,33.5 C 23.4916,33.3284 24.1583,33.6618 24.5,34.5C 24.5,36.5 24.5,38.5 24.5,40.5C 23.609,39.8902 22.609,39.5569 21.5,39.5C 21.5,38.8333 21.5,38.1667 21.5,37.5C 22.4345,36.4324 22.7678,35.099 22.5,33.5 Z"/></g>
<g><path style="opacity:1" fill="#5ea4c4" d="M 44.5,35.5 C 45.4916,35.3284 46.1583,35.6618 46.5,36.5C 45.3146,37.8566 44.3146,39.3566 43.5,41C 45.2949,43.4258 46.9616,45.9258 48.5,48.5C 48.5912,50.6977 47.9245,51.0311 46.5,49.5C 44.7819,47.7772 43.4486,45.7772 42.5,43.5C 41.5,42.5 40.5,41.5 39.5,40.5C 38.6618,40.1583 38.3284,39.4916 38.5,38.5C 38.5,37.8333 38.8333,37.5 39.5,37.5C 41.8762,38.8166 43.5429,38.1499 44.5,35.5 Z"/></g>
<g><path style="opacity:0.079" fill="#a8dade" d="M 25.5,40.5 C 28.6248,39.5206 31.9581,39.1872 35.5,39.5C 35.5,40.5 35.5,41.5 35.5,42.5C 34.5,42.5 33.5,42.5 32.5,42.5C 32.5,42.1667 32.5,41.8333 32.5,41.5C 31.6951,40.3996 29.3618,40.0663 25.5,40.5 Z"/></g>
<g><path style="opacity:0.968" fill="#249bbd" d="M 21.5,39.5 C 22.609,39.5569 23.609,39.8902 24.5,40.5C 24.8333,40.5 25.1667,40.5 25.5,40.5C 29.3618,40.0663 31.6951,40.3996 32.5,41.5C 29.091,41.2493 25.7577,41.5827 22.5,42.5C 21.6143,41.675 21.281,40.675 21.5,39.5 Z"/></g>
<g><path style="opacity:0.667" fill="#82bfd1" d="M 39.5,40.5 C 40.5,41.5 41.5,42.5 42.5,43.5C 41.2223,43.7822 40.2223,44.4489 39.5,45.5C 39.6716,44.5084 39.3382,43.8417 38.5,43.5C 38.5569,42.391 38.8902,41.391 39.5,40.5 Z"/></g>
<g><path style="opacity:1" fill="#7ab8d1" d="M 20.5,43.5 C 21.1667,43.8333 21.8333,44.1667 22.5,44.5C 22.5,44.8333 22.5,45.1667 22.5,45.5C 21.7281,46.6935 20.7281,47.6935 19.5,48.5C 19.1583,47.6618 18.4916,47.3284 17.5,47.5C 18.5116,46.1283 19.5116,44.795 20.5,43.5 Z"/></g>
<g><path style="opacity:0.937" fill="#3da3c6" d="M 6.5,45.5 C 7.16667,46.5 7.83333,47.5 8.5,48.5C 11.6085,48.7359 14.6085,48.4025 17.5,47.5C 18.4916,47.3284 19.1583,47.6618 19.5,48.5C 18.8333,49.1667 18.1667,49.8333 17.5,50.5C 17.1667,50.5 16.8333,50.5 16.5,50.5C 14.5,50.5 12.5,50.5 10.5,50.5C 9.16667,50.5 7.83333,50.5 6.5,50.5C 6.5,48.8333 6.5,47.1667 6.5,45.5 Z"/></g>
<g><path style="opacity:0.624" fill="#69a9c9" d="M 38.5,43.5 C 39.3382,43.8417 39.6716,44.5084 39.5,45.5C 38.8333,46.8333 37.8333,47.8333 36.5,48.5C 36.5,47.8333 36.1667,47.5 35.5,47.5C 35.7376,45.5956 36.7376,44.2623 38.5,43.5 Z"/></g>
<g><path style="opacity:0.839" fill="#38a0c4" d="M 22.5,44.5 C 23.1667,45.8333 23.8333,47.1667 24.5,48.5C 28.2693,48.756 31.9359,48.4227 35.5,47.5C 36.1667,47.5 36.5,47.8333 36.5,48.5C 36.5,49.1667 36.5,49.8333 36.5,50.5C 34.5,50.5 32.5,50.5 30.5,50.5C 29.1667,50.5 27.8333,50.5 26.5,50.5C 25.1667,50.5 23.8333,50.5 22.5,50.5C 22.5,48.8333 22.5,47.1667 22.5,45.5C 22.5,45.1667 22.5,44.8333 22.5,44.5 Z"/></g>
<g><path style="opacity:0.231" fill="#ada7a6" d="M 26.5,50.5 C 27.8333,50.5 29.1667,50.5 30.5,50.5C 32.0845,55.0793 30.5845,56.4126 26,54.5C 25.4209,53.0715 25.5876,51.7382 26.5,50.5 Z"/></g>
<g><path style="opacity:0.235" fill="#bac4c8" d="M 48.5,48.5 C 50.1042,49.287 50.7709,50.6203 50.5,52.5C 49.0048,52.0113 47.6715,51.3446 46.5,50.5C 46.5,50.1667 46.5,49.8333 46.5,49.5C 47.9245,51.0311 48.5912,50.6977 48.5,48.5 Z"/></g>
<g><path style="opacity:0.494" fill="#a8a6a5" d="M 16.5,50.5 C 16.8333,50.5 17.1667,50.5 17.5,50.5C 21.986,51.6006 22.3194,53.2673 18.5,55.5C 15.4898,54.8058 14.8231,53.1392 16.5,50.5 Z M 17.5,51.5 C 18.2891,51.7828 18.9558,52.2828 19.5,53C 18.184,53.5281 17.5173,53.0281 17.5,51.5 Z"/></g>
<g><path style="opacity:0.19" fill="#a09f9f" d="M 36.5,50.5 C 38.0568,51.4663 39.3901,52.7996 40.5,54.5C 39.3112,55.4287 37.9778,55.762 36.5,55.5C 36.5,53.8333 36.5,52.1667 36.5,50.5 Z"/></g>
<g><path style="opacity:0.353" fill="#a09d9c" d="M 6.5,50.5 C 7.83333,50.5 9.16667,50.5 10.5,50.5C 9.98861,52.1947 9.32194,53.8614 8.5,55.5C 7.85862,53.7045 6.85862,52.2045 5.5,51C 5.72845,50.6012 6.06178,50.4346 6.5,50.5 Z"/></g>
<g><path style="opacity:0.178" fill="#a8a7a7" d="M 46.5,50.5 C 47.6715,51.3446 49.0048,52.0113 50.5,52.5C 50.5,53.5 50.5,54.5 50.5,55.5C 48.8333,55.5 47.1667,55.5 45.5,55.5C 45.2155,53.5853 45.5489,51.9187 46.5,50.5 Z"/></g>
</svg>
